<svg width="14" height="15" viewBox="0 0 14 15" fill="none" xmlns="http://www.w3.org/2000/svg">
<path d="M10 1.72119H4C2.34315 1.72119 1 3.06434 1 4.72119V10.7212C1 12.378 2.34315 13.7212 4 13.7212H10C11.6569 13.7212 13 12.378 13 10.7212V4.72119C13 3.06434 11.6569 1.72119 10 1.72119Z" stroke="white" stroke-width="1.5"/>
<path d="M9.40002 7.34337C9.47407 7.84272 9.38877 8.3527 9.15627 8.80078C8.92377 9.24886 8.55591 9.61222 8.105 9.83918C7.65408 10.0661 7.14309 10.1451 6.64469 10.0649C6.14629 9.98473 5.68588 9.74942 5.32892 9.39247C4.97197 9.03552 4.73666 8.5751 4.65646 8.0767C4.57626 7.5783 4.65526 7.06731 4.88222 6.6164C5.10917 6.16548 5.47253 5.79762 5.92061 5.56512C6.36869 5.33262 6.87867 5.24733 7.37802 5.32137C7.88737 5.3969 8.35893 5.63425 8.72304 5.99836C9.08714 6.36246 9.32449 6.83402 9.40002 7.34337Z" stroke="white" stroke-width="1.5" stroke-linecap="round" stroke-linejoin="round"/>
</svg>
